<mxfile host="app.diagrams.net" modified="2023-02-08T03:46:41.712Z" agent="5.0 (Windows NT 6.1; Win64; x64) AppleWebKit/537.36 (KHTML, like Gecko) Chrome/109.0.0.0 Safari/537.36" etag="XZD7z1_yBEYFIUpvN8ra" version="20.8.18" type="github">
  <diagram name="第 1 页" id="lh7ydzCc7ynA8F5_acGI">
    <mxGraphModel dx="1050" dy="548" grid="1" gridSize="10" guides="1" tooltips="1" connect="1" arrows="1" fold="1" page="1" pageScale="1" pageWidth="827" pageHeight="1169" math="0" shadow="0">
      <root>
        <mxCell id="0" />
        <mxCell id="1" parent="0" />
        <mxCell id="7DXoSsNHb3DOnM7rZHPf-104" value="" style="rounded=0;whiteSpace=wrap;html=1;strokeColor=default;strokeWidth=1;fillColor=default;" vertex="1" parent="1">
          <mxGeometry x="831.5" y="1030" width="180" height="70" as="geometry" />
        </mxCell>
        <mxCell id="7DXoSsNHb3DOnM7rZHPf-1" value="Provider" style="swimlane;fontStyle=0;childLayout=stackLayout;horizontal=1;startSize=30;horizontalStack=0;resizeParent=1;resizeParentMax=0;resizeLast=0;collapsible=1;marginBottom=0;whiteSpace=wrap;html=1;" vertex="1" parent="1">
          <mxGeometry x="160" y="280" width="140" height="180" as="geometry" />
        </mxCell>
        <mxCell id="7DXoSsNHb3DOnM7rZHPf-2" value="EndpointSliceHandler" style="text;strokeColor=none;fillColor=none;align=left;verticalAlign=middle;spacingLeft=4;spacingRight=4;overflow=hidden;points=[[0,0.5],[1,0.5]];portConstraint=eastwest;rotatable=0;whiteSpace=wrap;html=1;" vertex="1" parent="7DXoSsNHb3DOnM7rZHPf-1">
          <mxGeometry y="30" width="140" height="30" as="geometry" />
        </mxCell>
        <mxCell id="7DXoSsNHb3DOnM7rZHPf-3" value="ServiceHandler" style="text;strokeColor=none;fillColor=none;align=left;verticalAlign=middle;spacingLeft=4;spacingRight=4;overflow=hidden;points=[[0,0.5],[1,0.5]];portConstraint=eastwest;rotatable=0;whiteSpace=wrap;html=1;" vertex="1" parent="7DXoSsNHb3DOnM7rZHPf-1">
          <mxGeometry y="60" width="140" height="30" as="geometry" />
        </mxCell>
        <mxCell id="7DXoSsNHb3DOnM7rZHPf-4" value="NodeHandler" style="text;strokeColor=none;fillColor=none;align=left;verticalAlign=middle;spacingLeft=4;spacingRight=4;overflow=hidden;points=[[0,0.5],[1,0.5]];portConstraint=eastwest;rotatable=0;whiteSpace=wrap;html=1;" vertex="1" parent="7DXoSsNHb3DOnM7rZHPf-1">
          <mxGeometry y="90" width="140" height="30" as="geometry" />
        </mxCell>
        <mxCell id="7DXoSsNHb3DOnM7rZHPf-6" value="Sync()" style="text;strokeColor=none;fillColor=none;align=left;verticalAlign=middle;spacingLeft=4;spacingRight=4;overflow=hidden;points=[[0,0.5],[1,0.5]];portConstraint=eastwest;rotatable=0;whiteSpace=wrap;html=1;" vertex="1" parent="7DXoSsNHb3DOnM7rZHPf-1">
          <mxGeometry y="120" width="140" height="30" as="geometry" />
        </mxCell>
        <mxCell id="7DXoSsNHb3DOnM7rZHPf-5" value="SyncLoop()" style="text;strokeColor=none;fillColor=none;align=left;verticalAlign=middle;spacingLeft=4;spacingRight=4;overflow=hidden;points=[[0,0.5],[1,0.5]];portConstraint=eastwest;rotatable=0;whiteSpace=wrap;html=1;" vertex="1" parent="7DXoSsNHb3DOnM7rZHPf-1">
          <mxGeometry y="150" width="140" height="30" as="geometry" />
        </mxCell>
        <mxCell id="7DXoSsNHb3DOnM7rZHPf-7" value="Proxier" style="swimlane;fontStyle=0;childLayout=stackLayout;horizontal=1;startSize=30;horizontalStack=0;resizeParent=1;resizeParentMax=0;resizeLast=0;collapsible=1;marginBottom=0;whiteSpace=wrap;html=1;" vertex="1" parent="1">
          <mxGeometry x="470" y="280" width="150" height="630" as="geometry" />
        </mxCell>
        <mxCell id="7DXoSsNHb3DOnM7rZHPf-8" value="OnEndpointSliceAdd、OnEndpointSliceUpdate、OnEndpointSliceDelete、OnEndpointSliceSynced" style="text;strokeColor=none;fillColor=none;align=left;verticalAlign=middle;spacingLeft=4;spacingRight=4;overflow=hidden;points=[[0,0.5],[1,0.5]];portConstraint=eastwest;rotatable=0;whiteSpace=wrap;html=1;" vertex="1" parent="7DXoSsNHb3DOnM7rZHPf-7">
          <mxGeometry y="30" width="150" height="170" as="geometry" />
        </mxCell>
        <mxCell id="7DXoSsNHb3DOnM7rZHPf-9" value="OnServiceAdd、OnServiceUpdate、OnServiceDelete、OnServiceSynced" style="text;strokeColor=none;fillColor=none;align=left;verticalAlign=middle;spacingLeft=4;spacingRight=4;overflow=hidden;points=[[0,0.5],[1,0.5]];portConstraint=eastwest;rotatable=0;whiteSpace=wrap;html=1;" vertex="1" parent="7DXoSsNHb3DOnM7rZHPf-7">
          <mxGeometry y="200" width="150" height="160" as="geometry" />
        </mxCell>
        <mxCell id="7DXoSsNHb3DOnM7rZHPf-10" value="OnNodeAdd、OnNodeUpdate、OnNodeDelete、OnNodeSynced" style="text;strokeColor=none;fillColor=none;align=left;verticalAlign=middle;spacingLeft=4;spacingRight=4;overflow=hidden;points=[[0,0.5],[1,0.5]];portConstraint=eastwest;rotatable=0;whiteSpace=wrap;html=1;" vertex="1" parent="7DXoSsNHb3DOnM7rZHPf-7">
          <mxGeometry y="360" width="150" height="180" as="geometry" />
        </mxCell>
        <mxCell id="7DXoSsNHb3DOnM7rZHPf-93" value="syncRunner" style="text;strokeColor=none;fillColor=none;align=left;verticalAlign=middle;spacingLeft=4;spacingRight=4;overflow=hidden;points=[[0,0.5],[1,0.5]];portConstraint=eastwest;rotatable=0;whiteSpace=wrap;html=1;" vertex="1" parent="7DXoSsNHb3DOnM7rZHPf-7">
          <mxGeometry y="540" width="150" height="30" as="geometry" />
        </mxCell>
        <mxCell id="7DXoSsNHb3DOnM7rZHPf-11" value="Sync()" style="text;strokeColor=none;fillColor=none;align=left;verticalAlign=middle;spacingLeft=4;spacingRight=4;overflow=hidden;points=[[0,0.5],[1,0.5]];portConstraint=eastwest;rotatable=0;whiteSpace=wrap;html=1;" vertex="1" parent="7DXoSsNHb3DOnM7rZHPf-7">
          <mxGeometry y="570" width="150" height="30" as="geometry" />
        </mxCell>
        <mxCell id="7DXoSsNHb3DOnM7rZHPf-12" value="SyncLoop()" style="text;strokeColor=none;fillColor=none;align=left;verticalAlign=middle;spacingLeft=4;spacingRight=4;overflow=hidden;points=[[0,0.5],[1,0.5]];portConstraint=eastwest;rotatable=0;whiteSpace=wrap;html=1;" vertex="1" parent="7DXoSsNHb3DOnM7rZHPf-7">
          <mxGeometry y="600" width="150" height="30" as="geometry" />
        </mxCell>
        <mxCell id="7DXoSsNHb3DOnM7rZHPf-13" value="" style="endArrow=block;dashed=1;endFill=0;endSize=12;html=1;rounded=0;entryX=1;entryY=0.061;entryDx=0;entryDy=0;entryPerimeter=0;exitX=0;exitY=0.033;exitDx=0;exitDy=0;exitPerimeter=0;" edge="1" parent="1" source="7DXoSsNHb3DOnM7rZHPf-7" target="7DXoSsNHb3DOnM7rZHPf-1">
          <mxGeometry width="160" relative="1" as="geometry">
            <mxPoint x="370" y="520" as="sourcePoint" />
            <mxPoint x="530" y="520" as="targetPoint" />
          </mxGeometry>
        </mxCell>
        <mxCell id="7DXoSsNHb3DOnM7rZHPf-14" value="Implementation" style="text;html=1;align=center;verticalAlign=middle;resizable=0;points=[];autosize=1;strokeColor=none;fillColor=none;" vertex="1" parent="1">
          <mxGeometry x="335" y="265" width="110" height="30" as="geometry" />
        </mxCell>
        <mxCell id="7DXoSsNHb3DOnM7rZHPf-15" value="EndpointSliceInformer" style="swimlane;fontStyle=0;childLayout=stackLayout;horizontal=1;startSize=30;horizontalStack=0;resizeParent=1;resizeParentMax=0;resizeLast=0;collapsible=1;marginBottom=0;whiteSpace=wrap;html=1;" vertex="1" parent="1">
          <mxGeometry x="1110" y="370" width="140" height="90" as="geometry" />
        </mxCell>
        <mxCell id="7DXoSsNHb3DOnM7rZHPf-16" value="Informer()" style="text;strokeColor=none;fillColor=none;align=left;verticalAlign=middle;spacingLeft=4;spacingRight=4;overflow=hidden;points=[[0,0.5],[1,0.5]];portConstraint=eastwest;rotatable=0;whiteSpace=wrap;html=1;" vertex="1" parent="7DXoSsNHb3DOnM7rZHPf-15">
          <mxGeometry y="30" width="140" height="30" as="geometry" />
        </mxCell>
        <mxCell id="7DXoSsNHb3DOnM7rZHPf-21" value="Lister()" style="text;strokeColor=none;fillColor=none;align=left;verticalAlign=middle;spacingLeft=4;spacingRight=4;overflow=hidden;points=[[0,0.5],[1,0.5]];portConstraint=eastwest;rotatable=0;whiteSpace=wrap;html=1;" vertex="1" parent="7DXoSsNHb3DOnM7rZHPf-15">
          <mxGeometry y="60" width="140" height="30" as="geometry" />
        </mxCell>
        <mxCell id="7DXoSsNHb3DOnM7rZHPf-22" value="ServiceInformer" style="swimlane;fontStyle=0;childLayout=stackLayout;horizontal=1;startSize=30;horizontalStack=0;resizeParent=1;resizeParentMax=0;resizeLast=0;collapsible=1;marginBottom=0;whiteSpace=wrap;html=1;" vertex="1" parent="1">
          <mxGeometry x="1110" y="550" width="140" height="90" as="geometry" />
        </mxCell>
        <mxCell id="7DXoSsNHb3DOnM7rZHPf-23" value="Informer()" style="text;strokeColor=none;fillColor=none;align=left;verticalAlign=middle;spacingLeft=4;spacingRight=4;overflow=hidden;points=[[0,0.5],[1,0.5]];portConstraint=eastwest;rotatable=0;whiteSpace=wrap;html=1;" vertex="1" parent="7DXoSsNHb3DOnM7rZHPf-22">
          <mxGeometry y="30" width="140" height="30" as="geometry" />
        </mxCell>
        <mxCell id="7DXoSsNHb3DOnM7rZHPf-24" value="Lister()" style="text;strokeColor=none;fillColor=none;align=left;verticalAlign=middle;spacingLeft=4;spacingRight=4;overflow=hidden;points=[[0,0.5],[1,0.5]];portConstraint=eastwest;rotatable=0;whiteSpace=wrap;html=1;" vertex="1" parent="7DXoSsNHb3DOnM7rZHPf-22">
          <mxGeometry y="60" width="140" height="30" as="geometry" />
        </mxCell>
        <mxCell id="7DXoSsNHb3DOnM7rZHPf-25" value="NodeInformer" style="swimlane;fontStyle=0;childLayout=stackLayout;horizontal=1;startSize=30;horizontalStack=0;resizeParent=1;resizeParentMax=0;resizeLast=0;collapsible=1;marginBottom=0;whiteSpace=wrap;html=1;" vertex="1" parent="1">
          <mxGeometry x="1110" y="720" width="140" height="90" as="geometry" />
        </mxCell>
        <mxCell id="7DXoSsNHb3DOnM7rZHPf-26" value="Informer()" style="text;strokeColor=none;fillColor=none;align=left;verticalAlign=middle;spacingLeft=4;spacingRight=4;overflow=hidden;points=[[0,0.5],[1,0.5]];portConstraint=eastwest;rotatable=0;whiteSpace=wrap;html=1;" vertex="1" parent="7DXoSsNHb3DOnM7rZHPf-25">
          <mxGeometry y="30" width="140" height="30" as="geometry" />
        </mxCell>
        <mxCell id="7DXoSsNHb3DOnM7rZHPf-27" value="Lister()" style="text;strokeColor=none;fillColor=none;align=left;verticalAlign=middle;spacingLeft=4;spacingRight=4;overflow=hidden;points=[[0,0.5],[1,0.5]];portConstraint=eastwest;rotatable=0;whiteSpace=wrap;html=1;" vertex="1" parent="7DXoSsNHb3DOnM7rZHPf-25">
          <mxGeometry y="60" width="140" height="30" as="geometry" />
        </mxCell>
        <mxCell id="7DXoSsNHb3DOnM7rZHPf-28" value="开启了TopologyAwareHints，&lt;br&gt;才会有NodeInformer" style="text;html=1;align=center;verticalAlign=middle;resizable=0;points=[];autosize=1;strokeColor=none;fillColor=none;" vertex="1" parent="1">
          <mxGeometry x="1260" y="720" width="180" height="40" as="geometry" />
        </mxCell>
        <mxCell id="7DXoSsNHb3DOnM7rZHPf-30" value="Endpoints和EndpointSlices二选一，&lt;br&gt;默认使用EndpointSlices，&lt;br&gt;userspace 模式不支持EndpointSlices" style="text;html=1;align=center;verticalAlign=middle;resizable=0;points=[];autosize=1;strokeColor=none;fillColor=none;" vertex="1" parent="1">
          <mxGeometry x="1260" y="370" width="220" height="60" as="geometry" />
        </mxCell>
        <mxCell id="7DXoSsNHb3DOnM7rZHPf-43" value="NodeConfig" style="swimlane;fontStyle=0;childLayout=stackLayout;horizontal=1;startSize=30;horizontalStack=0;resizeParent=1;resizeParentMax=0;resizeLast=0;collapsible=1;marginBottom=0;whiteSpace=wrap;html=1;" vertex="1" parent="1">
          <mxGeometry x="827" y="620" width="163" height="150" as="geometry" />
        </mxCell>
        <mxCell id="7DXoSsNHb3DOnM7rZHPf-44" value="listerSynced" style="text;strokeColor=none;fillColor=none;align=left;verticalAlign=middle;spacingLeft=4;spacingRight=4;overflow=hidden;points=[[0,0.5],[1,0.5]];portConstraint=eastwest;rotatable=0;whiteSpace=wrap;html=1;" vertex="1" parent="7DXoSsNHb3DOnM7rZHPf-43">
          <mxGeometry y="30" width="163" height="30" as="geometry" />
        </mxCell>
        <mxCell id="7DXoSsNHb3DOnM7rZHPf-45" value="eventHandlers" style="text;strokeColor=none;fillColor=none;align=left;verticalAlign=middle;spacingLeft=4;spacingRight=4;overflow=hidden;points=[[0,0.5],[1,0.5]];portConstraint=eastwest;rotatable=0;whiteSpace=wrap;html=1;" vertex="1" parent="7DXoSsNHb3DOnM7rZHPf-43">
          <mxGeometry y="60" width="163" height="30" as="geometry" />
        </mxCell>
        <mxCell id="7DXoSsNHb3DOnM7rZHPf-56" value="handleAddNode、&lt;br&gt;handleUpdateNode、&lt;br&gt;handleDeleteNode、" style="text;strokeColor=none;fillColor=none;align=left;verticalAlign=middle;spacingLeft=4;spacingRight=4;overflow=hidden;points=[[0,0.5],[1,0.5]];portConstraint=eastwest;rotatable=0;whiteSpace=wrap;html=1;" vertex="1" parent="7DXoSsNHb3DOnM7rZHPf-43">
          <mxGeometry y="90" width="163" height="60" as="geometry" />
        </mxCell>
        <mxCell id="7DXoSsNHb3DOnM7rZHPf-46" value="根据不同的模式，实现不同的Proxier实例。&lt;br&gt;四种模式：userspace、iptables、ipvs、kernelspace" style="text;html=1;align=center;verticalAlign=middle;resizable=0;points=[];autosize=1;strokeColor=none;fillColor=none;" vertex="1" parent="1">
          <mxGeometry x="380" y="210" width="300" height="40" as="geometry" />
        </mxCell>
        <mxCell id="7DXoSsNHb3DOnM7rZHPf-48" value="" style="endArrow=open;endFill=1;endSize=12;html=1;rounded=0;exitX=1;exitY=0;exitDx=0;exitDy=0;entryX=0;entryY=0.5;entryDx=0;entryDy=0;" edge="1" parent="1" source="7DXoSsNHb3DOnM7rZHPf-7">
          <mxGeometry width="160" relative="1" as="geometry">
            <mxPoint x="570" y="640" as="sourcePoint" />
            <mxPoint x="827" y="355" as="targetPoint" />
          </mxGeometry>
        </mxCell>
        <mxCell id="7DXoSsNHb3DOnM7rZHPf-49" value="RegisterEventHandler" style="text;html=1;align=center;verticalAlign=middle;resizable=0;points=[];autosize=1;strokeColor=none;fillColor=none;rotation=15;" vertex="1" parent="1">
          <mxGeometry x="670" y="295" width="140" height="30" as="geometry" />
        </mxCell>
        <mxCell id="7DXoSsNHb3DOnM7rZHPf-50" value="" style="endArrow=open;endFill=1;endSize=12;html=1;rounded=0;exitX=0.993;exitY=0.053;exitDx=0;exitDy=0;exitPerimeter=0;entryX=0;entryY=0.5;entryDx=0;entryDy=0;" edge="1" parent="1" source="7DXoSsNHb3DOnM7rZHPf-7" target="7DXoSsNHb3DOnM7rZHPf-61">
          <mxGeometry width="160" relative="1" as="geometry">
            <mxPoint x="631" y="302" as="sourcePoint" />
            <mxPoint x="827" y="460" as="targetPoint" />
          </mxGeometry>
        </mxCell>
        <mxCell id="7DXoSsNHb3DOnM7rZHPf-52" value="" style="endArrow=open;endFill=1;endSize=12;html=1;rounded=0;exitX=1;exitY=-0.014;exitDx=0;exitDy=0;exitPerimeter=0;entryX=0;entryY=0.5;entryDx=0;entryDy=0;" edge="1" parent="1" source="7DXoSsNHb3DOnM7rZHPf-8" target="7DXoSsNHb3DOnM7rZHPf-45">
          <mxGeometry width="160" relative="1" as="geometry">
            <mxPoint x="630" y="310" as="sourcePoint" />
            <mxPoint x="837" y="470" as="targetPoint" />
          </mxGeometry>
        </mxCell>
        <mxCell id="7DXoSsNHb3DOnM7rZHPf-53" value="RegisterEventHandler" style="text;html=1;align=center;verticalAlign=middle;resizable=0;points=[];autosize=1;strokeColor=none;fillColor=none;rotation=60;" vertex="1" parent="1">
          <mxGeometry x="680" y="475" width="140" height="30" as="geometry" />
        </mxCell>
        <mxCell id="7DXoSsNHb3DOnM7rZHPf-59" value="ServiceConfig" style="swimlane;fontStyle=0;childLayout=stackLayout;horizontal=1;startSize=30;horizontalStack=0;resizeParent=1;resizeParentMax=0;resizeLast=0;collapsible=1;marginBottom=0;whiteSpace=wrap;html=1;" vertex="1" parent="1">
          <mxGeometry x="827" y="450" width="163" height="150" as="geometry" />
        </mxCell>
        <mxCell id="7DXoSsNHb3DOnM7rZHPf-60" value="listerSynced" style="text;strokeColor=none;fillColor=none;align=left;verticalAlign=middle;spacingLeft=4;spacingRight=4;overflow=hidden;points=[[0,0.5],[1,0.5]];portConstraint=eastwest;rotatable=0;whiteSpace=wrap;html=1;" vertex="1" parent="7DXoSsNHb3DOnM7rZHPf-59">
          <mxGeometry y="30" width="163" height="30" as="geometry" />
        </mxCell>
        <mxCell id="7DXoSsNHb3DOnM7rZHPf-61" value="eventHandlers" style="text;strokeColor=none;fillColor=none;align=left;verticalAlign=middle;spacingLeft=4;spacingRight=4;overflow=hidden;points=[[0,0.5],[1,0.5]];portConstraint=eastwest;rotatable=0;whiteSpace=wrap;html=1;" vertex="1" parent="7DXoSsNHb3DOnM7rZHPf-59">
          <mxGeometry y="60" width="163" height="30" as="geometry" />
        </mxCell>
        <mxCell id="7DXoSsNHb3DOnM7rZHPf-62" value="handleAddService、&lt;br&gt;handleUpdateService、&lt;br&gt;handleDeleteService、" style="text;strokeColor=none;fillColor=none;align=left;verticalAlign=middle;spacingLeft=4;spacingRight=4;overflow=hidden;points=[[0,0.5],[1,0.5]];portConstraint=eastwest;rotatable=0;whiteSpace=wrap;html=1;" vertex="1" parent="7DXoSsNHb3DOnM7rZHPf-59">
          <mxGeometry y="90" width="163" height="60" as="geometry" />
        </mxCell>
        <mxCell id="7DXoSsNHb3DOnM7rZHPf-63" value="EndpointSliceConfig" style="swimlane;fontStyle=0;childLayout=stackLayout;horizontal=1;startSize=30;horizontalStack=0;resizeParent=1;resizeParentMax=0;resizeLast=0;collapsible=1;marginBottom=0;whiteSpace=wrap;html=1;" vertex="1" parent="1">
          <mxGeometry x="827" y="280" width="163" height="150" as="geometry" />
        </mxCell>
        <mxCell id="7DXoSsNHb3DOnM7rZHPf-64" value="listerSynced" style="text;strokeColor=none;fillColor=none;align=left;verticalAlign=middle;spacingLeft=4;spacingRight=4;overflow=hidden;points=[[0,0.5],[1,0.5]];portConstraint=eastwest;rotatable=0;whiteSpace=wrap;html=1;" vertex="1" parent="7DXoSsNHb3DOnM7rZHPf-63">
          <mxGeometry y="30" width="163" height="30" as="geometry" />
        </mxCell>
        <mxCell id="7DXoSsNHb3DOnM7rZHPf-65" value="eventHandlers" style="text;strokeColor=none;fillColor=none;align=left;verticalAlign=middle;spacingLeft=4;spacingRight=4;overflow=hidden;points=[[0,0.5],[1,0.5]];portConstraint=eastwest;rotatable=0;whiteSpace=wrap;html=1;" vertex="1" parent="7DXoSsNHb3DOnM7rZHPf-63">
          <mxGeometry y="60" width="163" height="30" as="geometry" />
        </mxCell>
        <mxCell id="7DXoSsNHb3DOnM7rZHPf-66" value="handleAddEndpointSlice、&lt;br&gt;handleUpdateEndpointSlice、&lt;br&gt;handleDeleteEndpointSlice、" style="text;strokeColor=none;fillColor=none;align=left;verticalAlign=middle;spacingLeft=4;spacingRight=4;overflow=hidden;points=[[0,0.5],[1,0.5]];portConstraint=eastwest;rotatable=0;whiteSpace=wrap;html=1;" vertex="1" parent="7DXoSsNHb3DOnM7rZHPf-63">
          <mxGeometry y="90" width="163" height="60" as="geometry" />
        </mxCell>
        <mxCell id="7DXoSsNHb3DOnM7rZHPf-67" value="handleAdd相关方法会调用Proxier中的OnAdd方法" style="text;html=1;align=center;verticalAlign=middle;resizable=0;points=[];autosize=1;strokeColor=none;fillColor=none;" vertex="1" parent="1">
          <mxGeometry x="620" y="770" width="290" height="30" as="geometry" />
        </mxCell>
        <mxCell id="7DXoSsNHb3DOnM7rZHPf-69" value="" style="endArrow=open;endFill=1;endSize=12;html=1;rounded=0;entryX=1;entryY=0.5;entryDx=0;entryDy=0;exitX=0;exitY=0.5;exitDx=0;exitDy=0;dashed=1;" edge="1" parent="1" source="7DXoSsNHb3DOnM7rZHPf-56" target="7DXoSsNHb3DOnM7rZHPf-10">
          <mxGeometry width="160" relative="1" as="geometry">
            <mxPoint x="630" y="700" as="sourcePoint" />
            <mxPoint x="837" y="705" as="targetPoint" />
          </mxGeometry>
        </mxCell>
        <mxCell id="7DXoSsNHb3DOnM7rZHPf-70" value="callback" style="edgeLabel;html=1;align=center;verticalAlign=middle;resizable=0;points=[];" vertex="1" connectable="0" parent="7DXoSsNHb3DOnM7rZHPf-69">
          <mxGeometry x="-0.0934" y="4" relative="1" as="geometry">
            <mxPoint as="offset" />
          </mxGeometry>
        </mxCell>
        <mxCell id="7DXoSsNHb3DOnM7rZHPf-71" value="" style="endArrow=open;endFill=1;endSize=12;html=1;rounded=0;entryX=1;entryY=0.5;entryDx=0;entryDy=0;exitX=0;exitY=0.5;exitDx=0;exitDy=0;dashed=1;" edge="1" parent="1" source="7DXoSsNHb3DOnM7rZHPf-62" target="7DXoSsNHb3DOnM7rZHPf-9">
          <mxGeometry width="160" relative="1" as="geometry">
            <mxPoint x="837" y="750" as="sourcePoint" />
            <mxPoint x="630" y="740" as="targetPoint" />
          </mxGeometry>
        </mxCell>
        <mxCell id="7DXoSsNHb3DOnM7rZHPf-72" value="callback" style="edgeLabel;html=1;align=center;verticalAlign=middle;resizable=0;points=[];" vertex="1" connectable="0" parent="7DXoSsNHb3DOnM7rZHPf-71">
          <mxGeometry x="-0.0934" y="4" relative="1" as="geometry">
            <mxPoint as="offset" />
          </mxGeometry>
        </mxCell>
        <mxCell id="7DXoSsNHb3DOnM7rZHPf-73" value="" style="endArrow=open;endFill=1;endSize=12;html=1;rounded=0;entryX=1;entryY=0.5;entryDx=0;entryDy=0;exitX=0;exitY=0.5;exitDx=0;exitDy=0;dashed=1;" edge="1" parent="1" source="7DXoSsNHb3DOnM7rZHPf-66" target="7DXoSsNHb3DOnM7rZHPf-8">
          <mxGeometry width="160" relative="1" as="geometry">
            <mxPoint x="837" y="580" as="sourcePoint" />
            <mxPoint x="630" y="570" as="targetPoint" />
          </mxGeometry>
        </mxCell>
        <mxCell id="7DXoSsNHb3DOnM7rZHPf-74" value="callback" style="edgeLabel;html=1;align=center;verticalAlign=middle;resizable=0;points=[];" vertex="1" connectable="0" parent="7DXoSsNHb3DOnM7rZHPf-73">
          <mxGeometry x="-0.0934" y="4" relative="1" as="geometry">
            <mxPoint as="offset" />
          </mxGeometry>
        </mxCell>
        <mxCell id="7DXoSsNHb3DOnM7rZHPf-75" value="" style="endArrow=open;endFill=1;endSize=12;html=1;rounded=0;exitX=1;exitY=0.5;exitDx=0;exitDy=0;entryX=0;entryY=0.25;entryDx=0;entryDy=0;" edge="1" parent="1" source="7DXoSsNHb3DOnM7rZHPf-66" target="7DXoSsNHb3DOnM7rZHPf-15">
          <mxGeometry width="160" relative="1" as="geometry">
            <mxPoint x="630" y="290" as="sourcePoint" />
            <mxPoint x="837" y="365" as="targetPoint" />
          </mxGeometry>
        </mxCell>
        <mxCell id="7DXoSsNHb3DOnM7rZHPf-76" value="注册到Informer：&lt;br&gt;AddFunc、&lt;br&gt;UpdateFunc、&lt;br&gt;DeleteFunc" style="text;html=1;align=center;verticalAlign=middle;resizable=0;points=[];autosize=1;strokeColor=none;fillColor=none;" vertex="1" parent="1">
          <mxGeometry x="990" y="405" width="120" height="70" as="geometry" />
        </mxCell>
        <mxCell id="7DXoSsNHb3DOnM7rZHPf-77" value="" style="endArrow=open;endFill=1;endSize=12;html=1;rounded=0;exitX=1;exitY=0.5;exitDx=0;exitDy=0;entryX=-0.014;entryY=0.144;entryDx=0;entryDy=0;entryPerimeter=0;" edge="1" parent="1" source="7DXoSsNHb3DOnM7rZHPf-62" target="7DXoSsNHb3DOnM7rZHPf-22">
          <mxGeometry width="160" relative="1" as="geometry">
            <mxPoint x="1000" y="410" as="sourcePoint" />
            <mxPoint x="1120" y="403" as="targetPoint" />
          </mxGeometry>
        </mxCell>
        <mxCell id="7DXoSsNHb3DOnM7rZHPf-78" value="" style="endArrow=open;endFill=1;endSize=12;html=1;rounded=0;exitX=1;exitY=0.5;exitDx=0;exitDy=0;entryX=-0.014;entryY=0.178;entryDx=0;entryDy=0;entryPerimeter=0;" edge="1" parent="1" source="7DXoSsNHb3DOnM7rZHPf-56" target="7DXoSsNHb3DOnM7rZHPf-25">
          <mxGeometry width="160" relative="1" as="geometry">
            <mxPoint x="1000" y="580" as="sourcePoint" />
            <mxPoint x="1120" y="583" as="targetPoint" />
          </mxGeometry>
        </mxCell>
        <mxCell id="7DXoSsNHb3DOnM7rZHPf-79" value="AddEventHandler" style="text;html=1;align=center;verticalAlign=middle;resizable=0;points=[];autosize=1;strokeColor=none;fillColor=none;" vertex="1" parent="1">
          <mxGeometry x="990" y="535" width="120" height="30" as="geometry" />
        </mxCell>
        <mxCell id="7DXoSsNHb3DOnM7rZHPf-81" value="AddEventHandler" style="text;html=1;align=center;verticalAlign=middle;resizable=0;points=[];autosize=1;strokeColor=none;fillColor=none;" vertex="1" parent="1">
          <mxGeometry x="990" y="710" width="120" height="30" as="geometry" />
        </mxCell>
        <mxCell id="7DXoSsNHb3DOnM7rZHPf-82" value="AddEventHandler" style="text;html=1;align=center;verticalAlign=middle;resizable=0;points=[];autosize=1;strokeColor=none;fillColor=none;" vertex="1" parent="1">
          <mxGeometry x="990" y="370" width="120" height="30" as="geometry" />
        </mxCell>
        <mxCell id="7DXoSsNHb3DOnM7rZHPf-89" value="BoundedFrequencyRunner" style="swimlane;fontStyle=0;childLayout=stackLayout;horizontal=1;startSize=30;horizontalStack=0;resizeParent=1;resizeParentMax=0;resizeLast=0;collapsible=1;marginBottom=0;whiteSpace=wrap;html=1;" vertex="1" parent="1">
          <mxGeometry x="760" y="880" width="190" height="120" as="geometry" />
        </mxCell>
        <mxCell id="7DXoSsNHb3DOnM7rZHPf-99" value="fn" style="text;strokeColor=none;fillColor=none;align=left;verticalAlign=middle;spacingLeft=4;spacingRight=4;overflow=hidden;points=[[0,0.5],[1,0.5]];portConstraint=eastwest;rotatable=0;whiteSpace=wrap;html=1;" vertex="1" parent="7DXoSsNHb3DOnM7rZHPf-89">
          <mxGeometry y="30" width="190" height="30" as="geometry" />
        </mxCell>
        <mxCell id="7DXoSsNHb3DOnM7rZHPf-90" value="Run()" style="text;strokeColor=none;fillColor=none;align=left;verticalAlign=middle;spacingLeft=4;spacingRight=4;overflow=hidden;points=[[0,0.5],[1,0.5]];portConstraint=eastwest;rotatable=0;whiteSpace=wrap;html=1;" vertex="1" parent="7DXoSsNHb3DOnM7rZHPf-89">
          <mxGeometry y="60" width="190" height="30" as="geometry" />
        </mxCell>
        <mxCell id="7DXoSsNHb3DOnM7rZHPf-91" value="Loop()" style="text;strokeColor=none;fillColor=none;align=left;verticalAlign=middle;spacingLeft=4;spacingRight=4;overflow=hidden;points=[[0,0.5],[1,0.5]];portConstraint=eastwest;rotatable=0;whiteSpace=wrap;html=1;" vertex="1" parent="7DXoSsNHb3DOnM7rZHPf-89">
          <mxGeometry y="90" width="190" height="30" as="geometry" />
        </mxCell>
        <mxCell id="7DXoSsNHb3DOnM7rZHPf-92" value="" style="endArrow=open;endFill=1;endSize=12;html=1;rounded=0;exitX=1;exitY=0.5;exitDx=0;exitDy=0;entryX=-0.011;entryY=0.189;entryDx=0;entryDy=0;entryPerimeter=0;" edge="1" parent="1" source="7DXoSsNHb3DOnM7rZHPf-93" target="7DXoSsNHb3DOnM7rZHPf-89">
          <mxGeometry width="160" relative="1" as="geometry">
            <mxPoint x="5" y="807" as="sourcePoint" />
            <mxPoint x="123" y="800" as="targetPoint" />
          </mxGeometry>
        </mxCell>
        <mxCell id="7DXoSsNHb3DOnM7rZHPf-94" value="" style="endArrow=open;endFill=1;endSize=12;html=1;rounded=0;entryX=0;entryY=0.5;entryDx=0;entryDy=0;exitX=1;exitY=0.5;exitDx=0;exitDy=0;dashed=1;" edge="1" parent="1" source="7DXoSsNHb3DOnM7rZHPf-11" target="7DXoSsNHb3DOnM7rZHPf-90">
          <mxGeometry width="160" relative="1" as="geometry">
            <mxPoint x="837" y="750" as="sourcePoint" />
            <mxPoint x="630" y="740" as="targetPoint" />
          </mxGeometry>
        </mxCell>
        <mxCell id="7DXoSsNHb3DOnM7rZHPf-95" value="callback" style="edgeLabel;html=1;align=center;verticalAlign=middle;resizable=0;points=[];" vertex="1" connectable="0" parent="7DXoSsNHb3DOnM7rZHPf-94">
          <mxGeometry x="-0.0934" y="4" relative="1" as="geometry">
            <mxPoint as="offset" />
          </mxGeometry>
        </mxCell>
        <mxCell id="7DXoSsNHb3DOnM7rZHPf-96" value="" style="endArrow=open;endFill=1;endSize=12;html=1;rounded=0;entryX=0;entryY=0.5;entryDx=0;entryDy=0;exitX=1;exitY=0.5;exitDx=0;exitDy=0;dashed=1;" edge="1" parent="1" source="7DXoSsNHb3DOnM7rZHPf-12" target="7DXoSsNHb3DOnM7rZHPf-91">
          <mxGeometry width="160" relative="1" as="geometry">
            <mxPoint x="630" y="875" as="sourcePoint" />
            <mxPoint x="770" y="935" as="targetPoint" />
          </mxGeometry>
        </mxCell>
        <mxCell id="7DXoSsNHb3DOnM7rZHPf-97" value="callback" style="edgeLabel;html=1;align=center;verticalAlign=middle;resizable=0;points=[];" vertex="1" connectable="0" parent="7DXoSsNHb3DOnM7rZHPf-96">
          <mxGeometry x="-0.0934" y="4" relative="1" as="geometry">
            <mxPoint as="offset" />
          </mxGeometry>
        </mxCell>
        <mxCell id="7DXoSsNHb3DOnM7rZHPf-98" value="BoundedFrequencyRunner 是一个管理器，用于执行用户注入的函数，可以指定运行的时间策略。" style="text;align=center;verticalAlign=middle;resizable=0;points=[];autosize=1;strokeColor=none;fillColor=none;" vertex="1" parent="1">
          <mxGeometry x="765" y="840" width="540" height="30" as="geometry" />
        </mxCell>
        <mxCell id="7DXoSsNHb3DOnM7rZHPf-100" value="chan run" style="strokeWidth=1;html=1;shape=mxgraph.flowchart.direct_data;whiteSpace=wrap;strokeColor=default;fillColor=default;" vertex="1" parent="1">
          <mxGeometry x="911.5" y="1050" width="80" height="30" as="geometry" />
        </mxCell>
        <mxCell id="7DXoSsNHb3DOnM7rZHPf-102" value="" style="edgeStyle=orthogonalEdgeStyle;rounded=0;orthogonalLoop=1;jettySize=auto;html=1;" edge="1" parent="1" source="7DXoSsNHb3DOnM7rZHPf-101" target="7DXoSsNHb3DOnM7rZHPf-100">
          <mxGeometry relative="1" as="geometry" />
        </mxCell>
        <mxCell id="7DXoSsNHb3DOnM7rZHPf-101" value="Run()" style="text;html=1;align=center;verticalAlign=middle;resizable=0;points=[];autosize=1;strokeColor=none;fillColor=none;" vertex="1" parent="1">
          <mxGeometry x="785" y="1050" width="50" height="30" as="geometry" />
        </mxCell>
        <mxCell id="7DXoSsNHb3DOnM7rZHPf-103" value="struct{}{}" style="text;html=1;align=center;verticalAlign=middle;resizable=0;points=[];autosize=1;strokeColor=none;fillColor=none;" vertex="1" parent="1">
          <mxGeometry x="835" y="1040" width="70" height="30" as="geometry" />
        </mxCell>
        <mxCell id="7DXoSsNHb3DOnM7rZHPf-105" value="" style="rounded=0;whiteSpace=wrap;html=1;strokeColor=default;strokeWidth=1;fillColor=default;" vertex="1" parent="1">
          <mxGeometry x="835" y="1130" width="580" height="190" as="geometry" />
        </mxCell>
        <mxCell id="7DXoSsNHb3DOnM7rZHPf-106" value="chan run" style="strokeWidth=1;html=1;shape=mxgraph.flowchart.direct_data;whiteSpace=wrap;strokeColor=default;fillColor=default;" vertex="1" parent="1">
          <mxGeometry x="875" y="1139" width="80" height="30" as="geometry" />
        </mxCell>
        <mxCell id="7DXoSsNHb3DOnM7rZHPf-108" value="Loop()" style="text;html=1;align=center;verticalAlign=middle;resizable=0;points=[];autosize=1;strokeColor=none;fillColor=none;" vertex="1" parent="1">
          <mxGeometry x="780" y="1139" width="60" height="30" as="geometry" />
        </mxCell>
        <mxCell id="7DXoSsNHb3DOnM7rZHPf-110" value="chan timer" style="strokeWidth=1;html=1;shape=mxgraph.flowchart.direct_data;whiteSpace=wrap;strokeColor=default;fillColor=default;" vertex="1" parent="1">
          <mxGeometry x="875" y="1190" width="80" height="30" as="geometry" />
        </mxCell>
        <mxCell id="7DXoSsNHb3DOnM7rZHPf-111" value="chan stop" style="strokeWidth=1;html=1;shape=mxgraph.flowchart.direct_data;whiteSpace=wrap;strokeColor=default;fillColor=default;" vertex="1" parent="1">
          <mxGeometry x="875" y="1240" width="80" height="30" as="geometry" />
        </mxCell>
        <mxCell id="7DXoSsNHb3DOnM7rZHPf-112" value="" style="endArrow=classic;html=1;rounded=0;exitX=1;exitY=0.5;exitDx=0;exitDy=0;exitPerimeter=0;" edge="1" parent="1" source="7DXoSsNHb3DOnM7rZHPf-106">
          <mxGeometry width="50" height="50" relative="1" as="geometry">
            <mxPoint x="1015" y="1220" as="sourcePoint" />
            <mxPoint x="1035" y="1190" as="targetPoint" />
          </mxGeometry>
        </mxCell>
        <mxCell id="7DXoSsNHb3DOnM7rZHPf-113" value="tryRun()" style="text;html=1;align=center;verticalAlign=middle;resizable=0;points=[];autosize=1;strokeColor=none;fillColor=none;" vertex="1" parent="1">
          <mxGeometry x="1045" y="1190" width="70" height="30" as="geometry" />
        </mxCell>
        <mxCell id="7DXoSsNHb3DOnM7rZHPf-114" value="" style="endArrow=classic;html=1;rounded=0;exitX=1;exitY=0.5;exitDx=0;exitDy=0;exitPerimeter=0;" edge="1" parent="1" source="7DXoSsNHb3DOnM7rZHPf-110">
          <mxGeometry width="50" height="50" relative="1" as="geometry">
            <mxPoint x="965" y="1164" as="sourcePoint" />
            <mxPoint x="1035" y="1205" as="targetPoint" />
          </mxGeometry>
        </mxCell>
        <mxCell id="7DXoSsNHb3DOnM7rZHPf-117" value="fn" style="text;html=1;align=center;verticalAlign=middle;resizable=0;points=[];autosize=1;strokeColor=none;fillColor=none;" vertex="1" parent="1">
          <mxGeometry x="1205" y="1190" width="30" height="30" as="geometry" />
        </mxCell>
        <mxCell id="7DXoSsNHb3DOnM7rZHPf-118" value="callback" style="text;html=1;align=center;verticalAlign=middle;resizable=0;points=[];autosize=1;strokeColor=none;fillColor=none;" vertex="1" parent="1">
          <mxGeometry x="1125" y="1180" width="70" height="30" as="geometry" />
        </mxCell>
        <mxCell id="7DXoSsNHb3DOnM7rZHPf-120" value="" style="endArrow=classic;html=1;rounded=0;exitX=1.067;exitY=0.667;exitDx=0;exitDy=0;exitPerimeter=0;" edge="1" parent="1" source="7DXoSsNHb3DOnM7rZHPf-117">
          <mxGeometry width="50" height="50" relative="1" as="geometry">
            <mxPoint x="1275" y="1290" as="sourcePoint" />
            <mxPoint x="1325" y="1210" as="targetPoint" />
          </mxGeometry>
        </mxCell>
        <mxCell id="7DXoSsNHb3DOnM7rZHPf-121" value="" style="endArrow=classic;html=1;rounded=0;exitX=1.014;exitY=0.633;exitDx=0;exitDy=0;exitPerimeter=0;" edge="1" parent="1" source="7DXoSsNHb3DOnM7rZHPf-113">
          <mxGeometry width="50" height="50" relative="1" as="geometry">
            <mxPoint x="1128" y="1210" as="sourcePoint" />
            <mxPoint x="1201" y="1210" as="targetPoint" />
          </mxGeometry>
        </mxCell>
        <mxCell id="7DXoSsNHb3DOnM7rZHPf-122" value="reset&amp;nbsp;maxInterval" style="text;html=1;align=center;verticalAlign=middle;resizable=0;points=[];autosize=1;strokeColor=none;fillColor=none;" vertex="1" parent="1">
          <mxGeometry x="1235" y="1180" width="120" height="30" as="geometry" />
        </mxCell>
        <mxCell id="7DXoSsNHb3DOnM7rZHPf-126" value="" style="edgeStyle=orthogonalEdgeStyle;rounded=0;orthogonalLoop=1;jettySize=auto;html=1;entryX=0;entryY=0.5;entryDx=0;entryDy=0;entryPerimeter=0;" edge="1" parent="1" source="7DXoSsNHb3DOnM7rZHPf-124" target="7DXoSsNHb3DOnM7rZHPf-110">
          <mxGeometry relative="1" as="geometry">
            <mxPoint x="1355" y="1360" as="targetPoint" />
            <Array as="points">
              <mxPoint x="1380" y="1300" />
              <mxPoint x="855" y="1300" />
              <mxPoint x="855" y="1205" />
            </Array>
          </mxGeometry>
        </mxCell>
        <mxCell id="7DXoSsNHb3DOnM7rZHPf-124" value="timer" style="text;html=1;align=center;verticalAlign=middle;resizable=0;points=[];autosize=1;strokeColor=none;fillColor=none;" vertex="1" parent="1">
          <mxGeometry x="1355" y="1190" width="50" height="30" as="geometry" />
        </mxCell>
        <mxCell id="7DXoSsNHb3DOnM7rZHPf-127" value="tick trigger" style="text;html=1;align=center;verticalAlign=middle;resizable=0;points=[];autosize=1;strokeColor=none;fillColor=none;" vertex="1" parent="1">
          <mxGeometry x="1075" y="1270" width="80" height="30" as="geometry" />
        </mxCell>
        <mxCell id="7DXoSsNHb3DOnM7rZHPf-128" value="syncProxyRules" style="rounded=0;whiteSpace=wrap;html=1;strokeColor=default;strokeWidth=1;fillColor=default;" vertex="1" parent="1">
          <mxGeometry x="1160" y="910" width="120" height="40" as="geometry" />
        </mxCell>
        <mxCell id="7DXoSsNHb3DOnM7rZHPf-129" value="" style="endArrow=open;endFill=1;endSize=12;html=1;rounded=0;entryX=0;entryY=0.5;entryDx=0;entryDy=0;" edge="1" parent="1" source="7DXoSsNHb3DOnM7rZHPf-99" target="7DXoSsNHb3DOnM7rZHPf-128">
          <mxGeometry width="160" relative="1" as="geometry">
            <mxPoint x="630" y="845" as="sourcePoint" />
            <mxPoint x="768" y="913" as="targetPoint" />
          </mxGeometry>
        </mxCell>
        <mxCell id="7DXoSsNHb3DOnM7rZHPf-130" value="" style="endArrow=open;endFill=1;endSize=12;html=1;rounded=0;entryX=0.5;entryY=1;entryDx=0;entryDy=0;exitX=0.467;exitY=0;exitDx=0;exitDy=0;exitPerimeter=0;" edge="1" parent="1" source="7DXoSsNHb3DOnM7rZHPf-117" target="7DXoSsNHb3DOnM7rZHPf-128">
          <mxGeometry width="160" relative="1" as="geometry">
            <mxPoint x="960" y="937" as="sourcePoint" />
            <mxPoint x="1170" y="940" as="targetPoint" />
          </mxGeometry>
        </mxCell>
        <mxCell id="7DXoSsNHb3DOnM7rZHPf-131" value="创建bfr时，注册刷新规则回调函数。&lt;br&gt;调用时机：1、监听到资源变化是回调；2、定时刷新" style="text;html=1;align=center;verticalAlign=middle;resizable=0;points=[];autosize=1;strokeColor=none;fillColor=none;" vertex="1" parent="1">
          <mxGeometry x="1240" y="910" width="300" height="40" as="geometry" />
        </mxCell>
      </root>
    </mxGraphModel>
  </diagram>
</mxfile>
